<svg width="30" height="20" viewBox="0 0 30 20" fill="none" xmlns="http://www.w3.org/2000/svg">
<path d="M19.3312 15.555C19.3312 15.7963 19.1712 15.9788 18.9325 15.9788C18.6838 15.9788 18.5312 15.7875 18.5312 15.555C18.5312 15.3225 18.6838 15.1312 18.9325 15.1312C19.17 15.1325 19.3312 15.315 19.3312 15.555ZM10.8138 15.1325C10.565 15.1325 10.4125 15.3237 10.4125 15.5562C10.4125 15.7887 10.565 15.98 10.8138 15.98C11.0513 15.98 11.2125 15.7975 11.2125 15.5562C11.2125 15.315 11.0525 15.1325 10.8138 15.1325ZM15.0525 15.1187C14.8475 15.1187 14.7312 15.2487 14.7013 15.44H15.3875C15.3575 15.235 15.2387 15.1187 15.0525 15.1187ZM21.6025 15.1325C21.3538 15.1325 21.2013 15.3237 21.2013 15.5562C21.2013 15.7887 21.3538 15.98 21.6025 15.98C21.84 15.98 22.0012 15.7975 22.0012 15.5562C22.0012 15.315 21.84 15.1325 21.6025 15.1325ZM30 2.5V17.5C30 18.88 28.88 20 27.5 20H2.5C1.12 20 0 18.88 0 17.5V2.5C0 1.12 1.12 0 2.5 0H27.5C28.88 0 30 1.12 30 2.5ZM6.93 8.73125C6.93 11.4825 9.16 13.7125 11.9113 13.7125C12.8725 13.7125 13.77 13.4387 14.5312 12.9675C13.3225 11.9512 12.5538 10.43 12.5538 8.73125C12.5538 7.0325 13.3237 5.51125 14.5312 4.495C13.77 4.02375 12.8738 3.75 11.9113 3.75C9.16125 3.75 6.93 5.98 6.93 8.73125ZM9.8625 15.3862C9.8625 15.0737 9.66375 14.8637 9.3425 14.86C9.17375 14.8575 9 14.91 8.8775 15.095C8.78625 14.9488 8.6425 14.86 8.44 14.86C8.29875 14.86 8.16 14.9012 8.0525 15.0562V14.8925H7.765V16.215H8.055V15.4813C8.055 15.2513 8.1825 15.13 8.37875 15.13C8.57 15.13 8.66625 15.255 8.66625 15.4787V16.215H8.95625V15.4813C8.95625 15.2513 9.08875 15.13 9.28 15.13C9.47625 15.13 9.57 15.255 9.57 15.4787V16.215H9.8625V15.3862ZM11.4838 14.8938H11.1962V15.0537C11.105 14.935 10.9663 14.86 10.7788 14.86C10.4075 14.86 10.1175 15.15 10.1175 15.555C10.1175 15.96 10.4075 16.25 10.7788 16.25C10.9675 16.25 11.105 16.175 11.1962 16.0562V16.2162H11.4838V14.8938ZM12.9387 15.8188C12.9387 15.5863 12.765 15.465 12.4762 15.4225L12.3413 15.4025C12.2163 15.3863 12.1175 15.3613 12.1175 15.2725C12.1175 15.175 12.2113 15.1175 12.3688 15.1175C12.5375 15.1175 12.7013 15.1812 12.7812 15.2312L12.9062 14.9987C12.7675 14.9075 12.5775 14.86 12.3662 14.86C12.0312 14.86 11.8162 15.02 11.8162 15.2837C11.8162 15.5 11.9762 15.6325 12.2725 15.6737L12.4075 15.6938C12.565 15.7163 12.64 15.7575 12.64 15.8325C12.64 15.935 12.535 15.9925 12.3388 15.9925C12.14 15.9925 11.9963 15.9288 11.8988 15.8538L11.7638 16.0775C11.9213 16.195 12.12 16.25 12.3363 16.25C12.7175 16.25 12.9387 16.07 12.9387 15.8188ZM14.22 16.1475L14.1375 15.9013C14.0513 15.9513 13.9575 15.9762 13.8825 15.9762C13.7387 15.9762 13.6912 15.8875 13.6912 15.755V15.1575H14.1613V14.895H13.6912V14.4938H13.4012V14.895H13.1325V15.1575H13.4012V15.7612C13.4012 16.0687 13.52 16.2512 13.86 16.2512C13.985 16.25 14.1288 16.2112 14.22 16.1475ZM15.6862 15.555C15.6838 15.1425 15.4287 14.86 15.0575 14.86C14.67 14.86 14.3988 15.1425 14.3988 15.555C14.3988 15.975 14.6812 16.25 15.0763 16.25C15.275 16.25 15.4575 16.2 15.6187 16.065L15.4775 15.8525C15.3663 15.9412 15.2263 15.9912 15.0925 15.9912C14.9075 15.9912 14.7387 15.905 14.6962 15.6675H15.6788L15.6862 15.555ZM16.8212 14.8975L16.6163 14.8612C16.45 14.8612 16.3425 14.9388 16.2675 15.055V14.895H15.9825V16.2175H16.27V15.475C16.27 15.2562 16.3638 15.135 16.5525 15.135L16.7325 15.1688L16.8212 14.8975ZM17.2063 15.555C17.2063 15.3 17.375 15.135 17.605 15.1312C17.73 15.1312 17.8425 15.1725 17.9513 15.25L18.09 15.0175C17.9463 14.9037 17.8137 14.86 17.6138 14.86C17.1875 14.86 16.9088 15.1538 16.9088 15.555C16.9088 15.9563 17.1863 16.25 17.6125 16.25C17.8113 16.25 17.945 16.2063 18.0887 16.0925L17.95 15.86C17.8425 15.9375 17.7288 15.9788 17.6038 15.9788C17.375 15.9763 17.2063 15.81 17.2063 15.555ZM19.6012 14.8938H19.3138V15.0537C19.2225 14.935 19.0837 14.86 18.8962 14.86C18.525 14.86 18.235 15.15 18.235 15.555C18.235 15.9588 18.525 16.25 18.8962 16.25C19.085 16.25 19.2225 16.175 19.3138 16.0562V16.2162H19.6012V14.8938ZM20.8188 14.8975L20.6137 14.8612C20.4475 14.8612 20.34 14.9388 20.265 15.055V14.895H19.98V16.2175H20.2675V15.475C20.2675 15.2562 20.3612 15.135 20.55 15.135L20.73 15.1688L20.8188 14.8975ZM22.2712 14.3625H21.9837V15.0537C21.8925 14.935 21.7537 14.86 21.5662 14.86C21.195 14.86 20.905 15.15 20.905 15.555C20.905 15.9588 21.195 16.25 21.5662 16.25C21.755 16.25 21.8925 16.175 21.9837 16.0562V16.2162H22.2712V14.3625ZM23.07 8.73125C23.07 5.98 20.8387 3.75 18.0887 3.75C15.3387 3.75 13.1075 5.98 13.1075 8.73125C13.1075 11.4825 15.3375 13.7125 18.0887 13.7125C20.84 13.7125 23.07 11.4825 23.07 8.73125Z" fill="#373A3F"/>
</svg>
