<svg width="30" height="20" viewBox="0 0 30 20" fill="none" xmlns="http://www.w3.org/2000/svg">
<path d="M24.5775 8.945L25.0463 11.09H23.3663L24.1725 9.01375L24.4412 8.305L24.5775 8.945ZM30 2.5V17.5C30 18.88 28.88 20 27.5 20H2.5C1.12 20 0 18.88 0 17.5V2.5C0 1.12 1.12 0 2.5 0H27.5C28.88 0 30 1.12 30 2.5ZM8.5675 13.7137L11.7537 6.3025H9.61L7.62875 11.3663L7.4175 10.3375L6.7075 6.925C6.585 6.45375 6.22875 6.31375 5.79 6.2975H2.52625L2.5 6.45125C3.29375 6.64375 4.00375 6.92125 4.62625 7.265L6.42625 13.715L8.5675 13.7137ZM14.5963 6.29625H12.5725L11.3075 13.7225H13.3313L14.5963 6.29625ZM20.3775 11.295C20.385 10.45 19.8463 9.8075 18.6787 9.2775C17.9713 8.93375 17.5375 8.705 17.5425 8.3575C17.5425 8.04875 17.9088 7.71875 18.7013 7.71875C19.3638 7.70875 19.8425 7.8525 20.2163 8.00375L20.3975 8.08875L20.6713 6.48C20.27 6.32875 19.6413 6.1675 18.8575 6.1675C16.8575 6.1675 15.4487 7.175 15.4362 8.61875C15.425 9.68625 16.4425 10.2812 17.21 10.6362C17.9975 11 18.2625 11.2325 18.2588 11.5575C18.2537 12.055 17.63 12.2825 17.0475 12.2825C16.2375 12.2825 15.8075 12.17 15.1425 11.8925L14.8812 11.7737L14.5975 13.4362C15.07 13.6437 15.945 13.8237 16.8525 13.8325C18.98 13.8325 20.3612 12.8363 20.3775 11.295ZM27.5 13.725L25.8612 6.30375H24.2975C23.8125 6.30375 23.45 6.43625 23.2375 6.92L20.2312 13.725H22.3563L22.7825 12.6087L25.375 12.6125L25.6213 13.725H27.5Z" fill="#373A3F"/>
</svg>
