<svg width="30" height="20" viewBox="0 0 30 20" fill="none" xmlns="http://www.w3.org/2000/svg">
<path d="M27.5 0H2.5C1.12 0 0 1.12 0 2.5V17.5C0 18.88 1.12 20 2.5 20H27.5C28.88 20 30 18.88 30 17.5V2.5C30 1.12 28.88 0 27.5 0ZM13.385 13.8875H11.7225C11.57 13.8875 11.4488 13.7587 11.4575 13.6075C11.4875 13.1287 11.765 11.5563 12.725 5.375C12.7575 5.15875 12.9412 5 13.1575 5H16.2175C17.855 5 19.0637 5.96125 18.73 7.68375C18.3862 9.475 17.2925 10.3463 15.3875 10.3463L14.4462 10.3475C14.06 10.3488 13.9175 10.495 13.8688 10.8387L13.385 13.8875ZM19.7213 9.745C19.3687 11.5862 18.16 12.2225 16.6175 12.2225H16.3787C16.19 12.2225 16.03 12.3613 16 12.5513L15.665 14.6725C15.6362 14.8612 15.4762 15 15.2875 15H14.1475C13.985 15 13.8612 14.855 13.8863 14.695L14.4637 10.995L14.49 10.9713H15.3875C17.5688 10.9713 18.9325 9.88 19.335 7.8175C19.6737 8.1575 19.7925 8.6 19.7925 9.0675C19.7913 9.29 19.765 9.51875 19.7213 9.745Z" fill="#373A3F"/>
</svg>
