<svg width="30" height="20" viewBox="0 0 30 20" fill="none" xmlns="http://www.w3.org/2000/svg">
<path d="M16.02 8.64875V9.005C16.02 9.64625 16.035 10.18 15.7125 10.75C15.4513 11.2138 15.035 11.4988 14.5738 11.4988C13.9413 11.4988 13.5725 11.0175 13.5725 10.305C13.5712 8.90375 14.83 8.64875 16.02 8.64875ZM30 2.5V17.5C30 18.88 28.88 20 27.5 20H2.5C1.12 20 0 18.88 0 17.5V2.5C0 1.12 1.12 0 2.5 0H27.5C28.88 0 30 1.12 30 2.5ZM16.02 7.1175V7.33125C15.0662 7.4375 13.8188 7.50875 12.925 7.90125C11.8938 8.34625 11.17 9.255 11.17 10.59C11.17 12.3 12.2487 13.155 13.6337 13.155C14.8037 13.155 15.4437 12.8788 16.3462 11.9588C16.6462 12.3913 16.7437 12.6012 17.2913 13.0562C17.4125 13.1225 17.57 13.1162 17.6787 13.0175C18.0063 12.725 18.6075 12.21 18.945 11.9288C19.0788 11.82 19.0562 11.6412 18.95 11.4913C18.65 11.075 18.3288 10.7375 18.3288 9.96625V7.4025C18.3288 6.31625 18.405 5.31875 17.6038 4.57C16.9738 3.96375 15.9275 3.75 15.1262 3.75C13.56 3.75 11.8125 4.33375 11.4462 6.27C11.4062 6.475 11.5575 6.58375 11.6925 6.61375L13.2875 6.7875C13.4375 6.78 13.545 6.63375 13.5738 6.485C13.7113 5.81875 14.2688 5.4975 14.8962 5.4975C15.235 5.4975 15.62 5.6225 15.82 5.92375C16.0513 6.2625 16.02 6.725 16.02 7.1175ZM19.5325 14.0538C18.1012 14.82 16.545 15.19 15.13 15.19C13.0325 15.19 11.0013 14.4637 9.35875 13.26C9.215 13.155 9.1075 13.34 9.22875 13.4762C10.7513 15.2087 12.7625 16.25 14.9963 16.25C16.59 16.25 18.4412 15.6175 19.7175 14.43C19.93 14.2337 19.7488 13.9388 19.5325 14.0538ZM20.7775 13.3037C20.635 13.1287 19.4175 12.9775 18.6737 13.5C18.5588 13.58 18.5788 13.6912 18.7062 13.6763C19.125 13.6263 20.0575 13.5138 20.2238 13.7275C20.39 13.94 20.0387 14.8175 19.8825 15.2087C19.835 15.3275 19.9375 15.375 20.0438 15.285C20.74 14.7013 20.9212 13.48 20.7775 13.3037Z" fill="#373A3F"/>
</svg>
