<svg width="30" height="20" viewBox="0 0 30 20" fill="none" xmlns="http://www.w3.org/2000/svg">
<path d="M27.5 0H2.5C1.12 0 0 1.12 0 2.5V17.5C0 18.88 1.12 20 2.5 20H27.5C28.88 20 30 18.88 30 17.5V2.5C30 1.12 28.88 0 27.5 0ZM11.8125 14.1437C11.8125 15.3 10.8737 16.2275 9.72875 16.2275H6.6725V11.8438C6.6725 11.8438 7.61125 12.1075 8.8125 12.1075C10.7925 12.1075 11.3762 11.34 11.3762 10.4012V7.98625H9.59125V10.4125C9.59125 11.0075 9.2025 11.4425 8.48125 11.4425C7.875 11.4425 7.2675 11.26 6.68375 10.9738V5.83375C6.68375 4.6775 7.6225 3.75 8.7675 3.75H11.8125V14.1437ZM17.5812 14.1663C17.5812 15.3225 16.6425 16.25 15.4975 16.25H12.4412V11.4425C12.9675 11.8888 13.8837 12.175 15.36 12.1063C16.1612 12.0725 16.9975 11.855 16.9975 11.855V10.9738C16.5737 11.18 16.07 11.3863 15.4175 11.4313C14.2962 11.5225 13.62 10.9738 13.62 10C13.62 9.03875 14.295 8.48875 15.4175 8.56875C16.07 8.615 16.5737 8.80875 16.9975 9.02625V8.145C16.9975 8.145 16.15 7.9275 15.36 7.89375C13.8837 7.825 12.9675 8.11125 12.4412 8.5575V5.8325C12.4412 4.6775 13.38 3.75 14.525 3.75H17.5812V14.1663ZM23.3275 14.155C23.3275 15.3113 22.3888 16.2387 21.2438 16.2387H18.1875V12.0037H21.415C22.17 12.0037 22.7425 11.5913 22.7425 10.9625C22.7425 10.3788 22.2275 10.0012 21.5525 9.955V9.9325C22.1713 9.8525 22.5025 9.45125 22.5025 8.9825C22.5025 8.3875 22.01 8.04375 21.3462 8.01L21.14 7.99875H18.2V5.83375C18.2 4.6775 19.1375 3.75 20.2825 3.75H23.3275V14.155ZM20.42 10.24L20.5688 10.2513C20.7975 10.3088 20.9925 10.515 20.9925 10.7887C20.9925 11.075 20.7975 11.2812 20.5688 11.3263L20.42 11.3375H19.2188V10.2388H20.42V10.24ZM19.2188 9.6225V8.615H20.3063L20.4212 8.62625C20.65 8.66 20.845 8.84375 20.845 9.11875C20.845 9.39375 20.65 9.57625 20.4212 9.61125L20.3063 9.6225H19.2188Z" fill="#373A3F"/>
</svg>
